<?xml version="1.0" encoding="UTF-8" standalone="no"?>
<svg width="256px" height="528px" viewBox="0 0 256 528" version="1.1" xmlns="http://www.w3.org/2000/svg" xmlns:xlink="http://www.w3.org/1999/xlink">
    <!-- Generator: Sketch 3.8.3 (29802) - http://www.bohemiancoding.com/sketch -->
    <title>SourcegraphLiveAsset 2</title>
    <desc>Created with Sketch.</desc>
    <defs>
        <radialGradient cx="49.999999%" cy="49.9999793%" fx="49.999999%" fy="49.9999793%" r="50%" id="radialGradient-1">
            <stop stop-color="#000000" offset="0%"></stop>
            <stop stop-color="#000000" stop-opacity="0" offset="100%"></stop>
        </radialGradient>
    </defs>
    <g id="Page-1" stroke="none" stroke-width="1" fill="none" fill-rule="evenodd">
        <g id="SourcegraphLiveAsset">
            <g id="Page-1">
                <g id="SourcegraphLiveAsset">
                    <path d="M178.388764,252 C143.891908,252 115.928644,244.622916 115.935633,235.524027 C115.928644,226.425137 143.891908,219.048053 178.388764,219.048053 C212.885619,219.048053 240.848885,226.425137 240.841896,235.524027 C240.848885,244.622916 212.885619,252 178.388764,252 L178.388764,252 Z" id="path4912" fill="url(#radialGradient-1)"></path>
                    <g id="SublimeText">
                        <path d="M0,0 L256,0 L256,29.19 C254.88,26.51 253.6,23.62 251,22.05 C248.58,20.39 245.54,20.42 242.74,20.15 C242.77,16.69 242.93,13.01 241.18,9.88 C239.07,5.49 234.63,2.79 230.13,1.37 C227.11,1.02 224.07,1.25 221.04,1.21 C157.34,1.2 93.65,1.23 29.95,1.2 C24.91,1.28 20.09,4.14 16.76,7.81 C13.29,11.63 13.19,17.03 13.38,21.89 C7.34,22.32 2.23,26.65 0,32.15 L0,0 L0,0 L0,0 Z" id="Shape"></path>
                        <path d="M16.76,7.81 C20.09,4.14 24.91,1.28 29.95,1.2 C93.65,1.23 157.34,1.2 221.04,1.21 C224.07,1.25 227.11,1.02 230.13,1.37 C234.63,2.79 239.07,5.49 241.18,9.88 C242.93,13.01 242.77,16.69 242.74,20.15 C242.94,62.43 242.87,104.71 242.88,146.99 C242.75,169.06 243.17,191.14 242.55,213.19 C242.38,205.15 242.51,197.11 242.05,189.08 C240.25,195.26 234.74,200.52 228.03,200.38 C162.03,200.42 96.02,200.37 30.02,200.41 C22.72,200.68 16.4,195.33 13.96,188.69 C13.65,196.82 13.67,204.96 13.68,213.09 C12.95,207.09 13.5,201.03 13.3,195.01 C13.3,137.3 13.23,79.59 13.38,21.89 C13.19,17.03 13.29,11.63 16.76,7.81 L16.76,7.81 L16.76,7.81 Z" id="Shape" fill="#4C4C4C"></path>
                        <path d="M242.74,20.15 C245.54,20.42 248.58,20.39 251,22.05 C253.6,23.62 254.88,26.51 256,29.19 L256,231.5 C255.08,236.54 253.24,241.88 248.98,245.07 C245.55,247.65 241,247 236.99,247.12 C165.65,247.06 94.31,247.11 22.97,247.1 C12.36,247.3 3.89,238.74 0,229.53 L0,32.15 C2.23,26.65 7.34,22.32 13.38,21.89 C13.23,79.59 13.3,137.3 13.3,195.01 C13.5,201.03 12.95,207.09 13.68,213.09 C15.28,220.46 22.35,226.31 29.94,226.19 C96.01,226.16 162.08,226.21 228.15,226.17 C235.3,226.11 241.45,220.1 242.55,213.19 C243.17,191.14 242.75,169.06 242.88,146.99 C242.87,104.71 242.94,62.43 242.74,20.15 L242.74,20.15 L242.74,20.15 Z" id="Shape" fill="#D9D9D9"></path>
                        <path d="M99.48,58.5 C108.68,48.05 123.66,44.42 137.08,46.34 C147.58,47.72 157.48,52.69 165.1,60 C160.91,65.14 156.75,70.28 152.63,75.47 C144.95,69.31 134.81,65.1 124.88,67.5 C120.41,68.34 116.36,72.31 116.74,77.08 C117.17,81.34 121.05,83.9 124.62,85.5 C132.74,89.15 141.13,92.16 149.3,95.71 C156.05,98.78 162.37,103.66 165.44,110.59 C169.92,120.68 168.78,133.2 162.12,142.08 C157.07,148.93 149.33,153.39 141.18,155.46 C122.68,160.02 102.04,154.74 88.09,141.76 C88.12,140.61 89.38,139.89 89.95,138.97 C93.96,134.31 97.82,129.53 101.78,124.84 C109.64,131.4 119.52,136.47 129.99,136.06 C134.88,135.79 140.98,134.21 142.63,128.94 C144.5,124.45 141.73,119.47 137.57,117.51 C128.74,113.03 119.33,109.81 110.38,105.58 C103.96,102.42 98.24,97.45 95.09,90.93 C90.02,80.53 91.62,67.11 99.48,58.5 L99.48,58.5 L99.48,58.5 Z" id="Shape" fill="#FF8100"></path>
                        <path d="M228.03,200.38 C234.74,200.52 240.25,195.26 242.05,189.08 C242.51,197.11 242.38,205.15 242.55,213.19 C241.45,220.1 235.3,226.11 228.15,226.17 C162.08,226.21 96.01,226.16 29.94,226.19 C22.35,226.31 15.28,220.46 13.68,213.09 C13.67,204.96 13.65,196.82 13.96,188.69 C16.4,195.33 22.72,200.68 30.02,200.41 C96.02,200.37 162.03,200.42 228.03,200.38 L228.03,200.38 L228.03,200.38 Z" id="Shape" fill="#262626"></path>
                        <path d="M0,229.53 C3.89,238.74 12.36,247.3 22.97,247.1 C94.31,247.11 165.65,247.06 236.99,247.12 C241,247 245.55,247.65 248.98,245.07 C253.24,241.88 255.08,236.54 256,231.5 L256,239.27 C254.76,245.46 251.79,251.95 245.61,254.53 C242.45,255.08 239.21,254.71 236.03,254.79 C166.01,254.79 96,254.76 26,254.8 C22.79,254.7 19.31,255.34 16.39,253.67 C8.57,250.23 1.59,243.57 0,234.9 L0,229.53 L0,229.53 L0,229.53 Z" id="Shape" fill="#999999"></path>
                        <path d="M0,234.9 C1.59,243.57 8.57,250.23 16.39,253.67 C19.31,255.34 22.79,254.7 26,254.8 C96,254.76 166.01,254.79 236.03,254.79 C239.21,254.71 242.45,255.08 245.61,254.53 C251.79,251.95 254.76,245.46 256,239.27 L256,256 L0,256 L0,234.9 L0,234.9 L0,234.9 Z" id="Shape"></path>
                    </g>
                </g>
            </g>
            <g id="vim-seeklogo.com" transform="translate(0.000000, 271.000000)">
                <g id="Group">
                    <polyline id="Shape" fill="#019833" points="128.286 1.952 1.945 127.885 128.286 254.4 254.047 127.885 128.286 1.952"></polyline>
                    <polyline id="Shape" fill="#66FE98" points="128.264 13.516 128.264 2.885 2.774 127.908 13.527 127.908 128.264 13.516"></polyline>
                    <polyline id="Shape" fill="#45FE02" points="128.264 13.516 128.264 2.885 254.144 127.908 242.508 127.908 128.264 13.516"></polyline>
                    <polyline id="Shape" fill="#017D17" points="128.264 242.836 128.264 254.605 2.774 127.908 13.527 127.908 128.264 242.836"></polyline>
                    <polyline id="Shape" fill="#005D04" points="128.264 242.836 128.264 254.605 254.144 127.908 242.508 127.908 128.264 242.836"></polyline>
                    <polyline id="Shape" fill="#000000" points="65.226 230.591 40.9 230.591 31.4 221.333 31.4 44.55 23.86 44.55 17.405 38.086 17.405 18.325 24.092 11.072 109.167 11.072 116.816 18.73 116.816 37.486 110.46 45.233 104.032 45.233 104.032 104.991 164.519 45.233 161.142 45.233 154.107 37.646 154.107 17.758 161.019 11.413 246.891 11.413 253.687 18.218 253.687 37.028 65.226 230.591"></polyline>
                    <path d="M128.264,256.342 L0,127.908 L128.264,0 L256,127.908 L128.264,256.342 L128.264,256.342 L128.264,256.342 Z M3.929,127.908 L128.264,252.41 L252.069,127.908 L128.264,3.935 L3.929,127.908 L3.929,127.908 L3.929,127.908 Z" id="Shape" fill="#000000"></path>
                    <polyline id="Shape" fill="#FEFEFE" points="108.075 22.742 111.854 20.301 107.993 16.293 26.156 16.293 21.998 20.457 21.998 36.207 26.608 40.823 28.807 36.207 25.915 33.31 25.915 22.207 28.084 20.276 105.348 20.371 108.075 22.742"></polyline>
                    <polyline id="Shape" fill="#FEFEFE" points="41.458 35.833 41.458 220.167 44.05 222.635 41.973 226.56 36.522 221.191 36.522 40.612 41.458 35.833"></polyline>
                    <polyline id="Shape" fill="#808080" points="28.236 35.833 26.608 40.823 36.494 40.823 42.213 35.833 28.236 35.833"></polyline>
                    <path d="M166.531,35.897 L163.074,33.455 L163.074,23.559 L166.69,19.938 L242.139,19.938 L245.032,23.8 L249.149,20.551 L244.911,16.679 L163.797,16.679 L159.759,20.722 L159.759,36.593 L164.011,40.441 M98.396,116.751 L90.517,135.895 L179.465,46.586 L179.03,35.782 L98.396,116.751" id="Shape" fill="#FEFEFE"></path>
                    <polyline id="Shape" fill="#808080" points="107.897 22.671 111.854 20.301 111.854 35.833 107.337 40.356 98.559 40.356 98.396 116.751 90.547 135.851 90.547 35.833 105.206 35.833 107.933 33.614 107.897 22.671"></polyline>
                    <polyline id="Shape" fill="#808080" points="244.764 22.722 249.149 20.551 249.149 34.734 62.408 226.56 41.973 226.56 43.967 222.79 59.662 222.791 244.791 31.379 244.764 22.722"></polyline>
                    <path d="M179.03,35.782 L174.482,40.351 L164.011,40.441 L166.568,35.851 C166.653,35.851 179.03,35.782 179.03,35.782" id="Shape" fill="#808080"></path>
                    <polyline id="Shape" fill="#CCCCCC" points="165.973 19.79 163.083 22.683 163.083 33.307 165.614 35.841 178.986 35.841 178.986 46.106 90.526 135.889 90.526 35.968 105.227 35.968 108.243 32.948 108.243 22.197 105.459 20.043 28.093 20.043 25.562 22.578 25.562 33.56 28.135 36.137 41.592 36.137 41.592 220.139 44.123 222.673 59.415 222.673 244.794 31.131 244.794 22.683 241.904 19.79 165.973 19.79"></polyline>
                    <path d="M59.519,222.918 L44.022,222.918 L41.348,220.24 L41.348,36.381 L28.034,36.381 L25.318,33.661 L25.318,22.476 L27.992,19.799 L105.543,19.799 L108.488,22.077 L108.488,33.049 L105.329,36.212 L90.77,36.212 L90.77,135.293 L178.742,46.005 L178.742,36.086 L165.513,36.086 L162.839,33.408 L162.839,22.582 L165.871,19.545 L242.005,19.545 L245.038,22.582 L245.038,31.23 L244.97,31.301 L59.519,222.918 L59.519,222.918 L59.519,222.918 Z M44.225,222.429 L59.312,222.429 L244.55,31.033 L244.55,22.784 L241.803,20.034 L166.074,20.034 L163.327,22.784 L163.327,33.206 L165.715,35.597 L179.231,35.597 L179.231,46.206 L179.161,46.277 L90.282,136.485 L90.282,35.724 L105.126,35.724 L107.999,32.846 L107.999,22.317 L105.376,20.287 L28.194,20.287 L25.806,22.679 L25.806,33.459 L28.237,35.893 L41.836,35.893 L41.836,220.037 L44.225,222.429 L44.225,222.429 L44.225,222.429 Z" id="Shape" fill="#808080"></path>
                    <path d="M134.566,143.819 C134.425,143.848 134.295,143.914 134.186,144.009 L130.601,147.092 C130.494,147.19 130.414,147.313 130.369,147.451 L126.783,157.505 C126.675,157.806 126.749,158.142 126.973,158.371 L129.715,161.116 C129.874,161.269 130.086,161.352 130.306,161.349 L141.379,161.349 C141.599,161.352 141.811,161.269 141.969,161.116 L144.859,158.202 C144.959,158.102 145.031,157.978 145.07,157.843 L148.15,147.261 C148.235,146.969 148.154,146.653 147.939,146.438 L145.555,144.051 C145.397,143.898 145.184,143.815 144.965,143.819 L134.735,143.819 C134.679,143.813 134.622,143.813 134.566,143.819 L134.566,143.819 L134.566,143.819 Z M114.276,172.162 C113.965,172.229 113.72,172.467 113.643,172.775 L112.272,178.224 C112.161,178.67 112.432,179.123 112.878,179.234 C112.942,179.25 113.007,179.258 113.073,179.259 L119.591,179.259 L103.434,225.449 C103.288,225.886 103.523,226.358 103.959,226.504 C104.041,226.532 104.127,226.547 104.215,226.548 L127.732,226.548 C128.095,226.553 128.419,226.322 128.534,225.977 L130.074,221.014 C130.208,220.574 129.961,220.108 129.521,219.973 C129.441,219.949 129.357,219.936 129.272,219.937 L123.957,219.937 L139.945,173.261 C140.091,172.824 139.856,172.352 139.42,172.206 C139.338,172.178 139.251,172.163 139.164,172.162 L114.444,172.162 C114.388,172.157 114.332,172.157 114.276,172.162 L114.276,172.162 L114.276,172.162 Z M189.111,172.331 C188.93,172.369 188.766,172.465 188.646,172.606 L183.753,178.139 L175.97,178.139 L170.781,172.754 C170.626,172.593 170.414,172.502 170.191,172.5 L151.609,172.5 C151.259,172.501 150.947,172.72 150.828,173.049 L149.12,178.161 C148.974,178.597 149.208,179.069 149.644,179.216 C149.727,179.243 149.813,179.258 149.9,179.259 L154.878,179.259 L139.396,224.942 C139.25,225.379 139.485,225.851 139.921,225.998 C140.003,226.025 140.09,226.04 140.177,226.041 L159.961,226.041 C160.311,226.04 160.622,225.821 160.742,225.492 L162.26,221.035 C162.406,220.599 162.172,220.126 161.736,219.98 C161.653,219.952 161.567,219.938 161.48,219.937 L158.021,219.937 L167.892,188.826 L185.757,188.826 L174.494,224.964 C174.359,225.404 174.606,225.87 175.046,226.004 C175.127,226.029 175.211,226.041 175.295,226.041 L194.383,226.041 C194.715,226.038 195.013,225.839 195.143,225.534 L196.851,221.436 C197.021,221.009 196.812,220.524 196.385,220.355 C196.291,220.318 196.192,220.298 196.092,220.296 L192.633,220.296 L202.673,188.657 L219.673,188.657 L208.241,224.964 C208.107,225.404 208.354,225.87 208.793,226.004 C208.874,226.029 208.958,226.041 209.043,226.041 L230.008,226.041 C230.352,226.043 230.663,225.833 230.789,225.513 L232.497,221.056 C232.655,220.624 232.433,220.146 232.001,219.988 C231.91,219.954 231.814,219.937 231.717,219.937 L227.561,219.937 L240.196,178.858 C240.28,178.598 240.233,178.315 240.069,178.097 L236.146,172.817 C235.984,172.611 235.733,172.493 235.471,172.5 L220.475,172.5 C220.244,172.496 220.023,172.588 219.863,172.754 L215.138,177.949 L206.87,177.949 L201.977,172.585 C201.817,172.419 201.595,172.327 201.365,172.331 L189.279,172.331 C189.223,172.326 189.167,172.326 189.111,172.331 L189.111,172.331 L189.111,172.331 Z" id="Shape" fill="#CCCCCC"></path>
                    <path d="M128.359,162.524 C128.882,163.028 129.566,163.304 130.26,163.304 C130.275,163.304 130.29,163.304 130.306,163.303 L141.345,163.303 C142.087,163.326 142.789,163.04 143.358,162.493 L146.241,159.584 C146.575,159.25 146.82,158.833 146.947,158.389 L150.026,147.809 C150.311,146.83 150.041,145.774 149.321,145.057 L146.912,142.644 C146.377,142.128 145.674,141.844 144.965,141.864 L134.805,141.864 C134.659,141.856 134.513,141.859 134.369,141.874 L134.164,141.906 C133.694,142.005 133.255,142.224 132.912,142.526 L129.326,145.61 L129.285,145.647 C128.936,145.965 128.673,146.367 128.521,146.814 L124.943,156.845 C124.584,157.846 124.834,158.982 125.59,159.752 L128.359,162.524 L128.359,162.524 L128.359,162.524 Z M144.513,145.773 L146.088,147.35 L143.272,157.026 L140.926,159.394 L130.758,159.395 L128.861,157.495 L132.118,148.365 L135.132,145.773 L144.513,145.773 L144.513,145.773 L144.513,145.773 Z" id="Shape" fill="#000000"></path>
                    <path d="M241.638,176.931 L237.715,171.651 L237.68,171.606 C237.146,170.928 236.32,170.535 235.455,170.546 L220.507,170.546 C219.73,170.528 218.993,170.842 218.458,171.394 L214.274,175.995 L207.733,175.995 L203.421,171.268 L203.381,171.225 C202.847,170.673 202.108,170.378 201.365,170.377 L189.349,170.377 C189.204,170.369 189.057,170.372 188.913,170.387 L188.711,170.418 C188.11,170.543 187.559,170.87 187.182,171.311 L182.872,176.185 L176.801,176.185 L172.186,171.395 C171.671,170.862 170.949,170.552 170.191,170.546 L151.603,170.546 C150.438,170.549 149.389,171.287 148.991,172.383 L147.267,177.538 C146.778,178.995 147.565,180.579 149.023,181.069 C149.299,181.161 149.587,181.21 149.9,181.213 L152.152,181.213 L137.542,224.323 C137.056,225.778 137.843,227.361 139.299,227.851 C139.576,227.943 139.864,227.992 140.177,227.995 L159.967,227.995 C161.133,227.992 162.183,227.253 162.592,226.122 L164.114,221.656 C164.601,220.2 163.814,218.617 162.357,218.127 C162.08,218.034 161.792,217.985 161.48,217.982 L160.691,217.982 L169.322,190.781 L183.1,190.781 L172.624,224.392 C172.175,225.862 173.005,227.423 174.471,227.872 C174.742,227.955 175.032,227.989 175.295,227.995 L194.4,227.995 C195.51,227.986 196.508,227.32 196.947,226.286 L198.669,222.156 C199.234,220.727 198.533,219.104 197.111,218.54 C196.794,218.413 196.461,218.347 196.092,218.341 L195.304,218.341 L204.103,190.612 L217.008,190.612 L206.371,224.394 C205.924,225.863 206.754,227.424 208.219,227.872 C208.484,227.954 208.76,227.995 209.028,227.995 L209.043,227.995 L229.995,227.995 C231.153,227.988 232.189,227.293 232.614,226.212 L234.333,221.727 C234.86,220.284 234.116,218.68 232.673,218.152 C232.37,218.041 232.051,217.984 231.717,217.982 L230.207,217.982 L242.054,179.464 C242.336,178.6 242.178,177.649 241.638,176.931 L241.638,176.931 L241.638,176.931 Z M224.915,221.891 L230.084,221.891 L229.242,224.086 L210.566,224.086 L222.338,186.703 L201.242,186.703 L189.962,222.251 L194.394,222.251 L193.629,224.086 L176.814,224.086 L188.413,186.872 L166.461,186.872 L155.35,221.891 L159.904,221.891 L159.156,224.086 L141.75,224.086 L157.604,177.304 L151.467,177.304 L152.419,174.455 L169.706,174.455 L175.139,180.094 L184.634,180.094 L189.769,174.286 L200.883,174.285 L206.007,179.904 L216.003,179.904 L220.958,174.455 L234.928,174.455 L238.164,178.811 L224.915,221.891 L224.915,221.891 L224.915,221.891 Z" id="Shape" fill="#000000"></path>
                    <path d="M130.096,218.105 C129.826,218.022 129.556,217.989 129.272,217.982 L126.692,217.982 L141.798,173.883 C142.287,172.425 141.499,170.842 140.041,170.352 C139.766,170.26 139.478,170.211 139.164,170.208 L114.514,170.208 C114.368,170.2 114.222,170.203 114.077,170.218 L113.864,170.252 C112.818,170.477 112.006,171.262 111.747,172.298 L110.375,177.752 C110.004,179.242 110.914,180.757 112.409,181.132 C112.621,181.184 112.84,181.212 113.073,181.213 L116.836,181.213 L101.581,224.828 C101.092,226.286 101.881,227.869 103.337,228.358 C103.614,228.45 103.902,228.499 104.215,228.502 L127.704,228.502 L127.745,228.502 C128.949,228.502 130.008,227.739 130.401,226.556 L131.943,221.585 C132.392,220.116 131.562,218.554 130.096,218.105 L130.096,218.105 L130.096,218.105 Z M105.804,224.593 L122.345,177.304 L114.519,177.304 L115.321,174.117 L137.585,174.117 L121.221,221.891 L127.755,221.891 L126.917,224.593 L105.804,224.593 L105.804,224.593 L105.804,224.593 Z" id="Shape" fill="#000000"></path>
                </g>
            </g>
        </g>
    </g>
</svg>