<?xml version="1.0" encoding="UTF-8" standalone="no"?>
<svg width="431px" height="287px" viewBox="0 0 431 287" version="1.1" xmlns="http://www.w3.org/2000/svg" xmlns:xlink="http://www.w3.org/1999/xlink">
    <!-- Generator: Sketch 3.8.3 (29802) - http://www.bohemiancoding.com/sketch -->
    <title>SourcegraphLiveAsset 2</title>
    <desc>Created with Sketch.</desc>
    <defs>
        <radialGradient cx="49.999999%" cy="49.9999793%" fx="49.999999%" fy="49.9999793%" r="50%" id="radialGradient-1">
            <stop stop-color="#000000" offset="0%"></stop>
            <stop stop-color="#000000" stop-opacity="0" offset="100%"></stop>
        </radialGradient>
    </defs>
    <g id="Page-1" stroke="none" stroke-width="1" fill="none" fill-rule="evenodd">
        <g id="SourcegraphLiveAsset" transform="translate(0.000000, 6.000000)">
            <g id="Page-1">
                <g id="SourcegraphLiveAsset" transform="translate(0.000000, 9.000000)">
                    <path d="M178.388764,256 C143.891908,256 115.928644,248.622916 115.935633,239.524027 C115.928644,230.425137 143.891908,223.048053 178.388764,223.048053 C212.885619,223.048053 240.848885,230.425137 240.841896,239.524027 C240.848885,248.622916 212.885619,256 178.388764,256 L178.388764,256 Z" id="path4912" fill="url(#radialGradient-1)"></path>
                    <g id="SublimeText">
                        <path d="M0,0 L256,0 L256,29.19 C254.88,26.51 253.6,23.62 251,22.05 C248.58,20.39 245.54,20.42 242.74,20.15 C242.77,16.69 242.93,13.01 241.18,9.88 C239.07,5.49 234.63,2.79 230.13,1.37 C227.11,1.02 224.07,1.25 221.04,1.21 C157.34,1.2 93.65,1.23 29.95,1.2 C24.91,1.28 20.09,4.14 16.76,7.81 C13.29,11.63 13.19,17.03 13.38,21.89 C7.34,22.32 2.23,26.65 0,32.15 L0,0 L0,0 L0,0 Z" id="Shape"></path>
                        <path d="M16.76,7.81 C20.09,4.14 24.91,1.28 29.95,1.2 C93.65,1.23 157.34,1.2 221.04,1.21 C224.07,1.25 227.11,1.02 230.13,1.37 C234.63,2.79 239.07,5.49 241.18,9.88 C242.93,13.01 242.77,16.69 242.74,20.15 C242.94,62.43 242.87,104.71 242.88,146.99 C242.75,169.06 243.17,191.14 242.55,213.19 C242.38,205.15 242.51,197.11 242.05,189.08 C240.25,195.26 234.74,200.52 228.03,200.38 C162.03,200.42 96.02,200.37 30.02,200.41 C22.72,200.68 16.4,195.33 13.96,188.69 C13.65,196.82 13.67,204.96 13.68,213.09 C12.95,207.09 13.5,201.03 13.3,195.01 C13.3,137.3 13.23,79.59 13.38,21.89 C13.19,17.03 13.29,11.63 16.76,7.81 L16.76,7.81 L16.76,7.81 Z" id="Shape" fill="#4C4C4C"></path>
                        <path d="M242.74,20.15 C245.54,20.42 248.58,20.39 251,22.05 C253.6,23.62 254.88,26.51 256,29.19 L256,231.5 C255.08,236.54 253.24,241.88 248.98,245.07 C245.55,247.65 241,247 236.99,247.12 C165.65,247.06 94.31,247.11 22.97,247.1 C12.36,247.3 3.89,238.74 0,229.53 L0,32.15 C2.23,26.65 7.34,22.32 13.38,21.89 C13.23,79.59 13.3,137.3 13.3,195.01 C13.5,201.03 12.95,207.09 13.68,213.09 C15.28,220.46 22.35,226.31 29.94,226.19 C96.01,226.16 162.08,226.21 228.15,226.17 C235.3,226.11 241.45,220.1 242.55,213.19 C243.17,191.14 242.75,169.06 242.88,146.99 C242.87,104.71 242.94,62.43 242.74,20.15 L242.74,20.15 L242.74,20.15 Z" id="Shape" fill="#D9D9D9"></path>
                        <path d="M99.48,58.5 C108.68,48.05 123.66,44.42 137.08,46.34 C147.58,47.72 157.48,52.69 165.1,60 C160.91,65.14 156.75,70.28 152.63,75.47 C144.95,69.31 134.81,65.1 124.88,67.5 C120.41,68.34 116.36,72.31 116.74,77.08 C117.17,81.34 121.05,83.9 124.62,85.5 C132.74,89.15 141.13,92.16 149.3,95.71 C156.05,98.78 162.37,103.66 165.44,110.59 C169.92,120.68 168.78,133.2 162.12,142.08 C157.07,148.93 149.33,153.39 141.18,155.46 C122.68,160.02 102.04,154.74 88.09,141.76 C88.12,140.61 89.38,139.89 89.95,138.97 C93.96,134.31 97.82,129.53 101.78,124.84 C109.64,131.4 119.52,136.47 129.99,136.06 C134.88,135.79 140.98,134.21 142.63,128.94 C144.5,124.45 141.73,119.47 137.57,117.51 C128.74,113.03 119.33,109.81 110.38,105.58 C103.96,102.42 98.24,97.45 95.09,90.93 C90.02,80.53 91.62,67.11 99.48,58.5 L99.48,58.5 L99.48,58.5 Z" id="Shape" fill="#FF8100"></path>
                        <path d="M228.03,200.38 C234.74,200.52 240.25,195.26 242.05,189.08 C242.51,197.11 242.38,205.15 242.55,213.19 C241.45,220.1 235.3,226.11 228.15,226.17 C162.08,226.21 96.01,226.16 29.94,226.19 C22.35,226.31 15.28,220.46 13.68,213.09 C13.67,204.96 13.65,196.82 13.96,188.69 C16.4,195.33 22.72,200.68 30.02,200.41 C96.02,200.37 162.03,200.42 228.03,200.38 L228.03,200.38 L228.03,200.38 Z" id="Shape" fill="#262626"></path>
                        <path d="M0,229.53 C3.89,238.74 12.36,247.3 22.97,247.1 C94.31,247.11 165.65,247.06 236.99,247.12 C241,247 245.55,247.65 248.98,245.07 C253.24,241.88 255.08,236.54 256,231.5 L256,239.27 C254.76,245.46 251.79,251.95 245.61,254.53 C242.45,255.08 239.21,254.71 236.03,254.79 C166.01,254.79 96,254.76 26,254.8 C22.79,254.7 19.31,255.34 16.39,253.67 C8.57,250.23 1.59,243.57 0,234.9 L0,229.53 L0,229.53 L0,229.53 Z" id="Shape" fill="#999999"></path>
                        <path d="M0,234.9 C1.59,243.57 8.57,250.23 16.39,253.67 C19.31,255.34 22.79,254.7 26,254.8 C96,254.76 166.01,254.79 236.03,254.79 C239.21,254.71 242.45,255.08 245.61,254.53 C251.79,251.95 254.76,245.46 256,239.27 L256,256 L0,256 L0,234.9 L0,234.9 L0,234.9 Z" id="Shape"></path>
                    </g>
                </g>
                <g id="Vimlogo" transform="translate(150.000000, 0.000000)" stroke="#000000">
                    <g id="layer1" transform="translate(0.010029, 0.351346)">
                        <g id="g3699" transform="translate(0.001469, 0.143517)">
                            <polygon id="path2836" stroke-width="1.38529709" fill="#019833" points="137.345281 11.5225611 12.3971439 136.398025 136.82467 260.753177 261.772799 135.877713"></polygon>
                            <polygon id="path2838" stroke-width="1.38529709" fill="#66FE98" points="136.82467 12.0428811 136.82467 1.1162792 0.943572468 136.918338 12.3971439 136.918338 136.82467 12.0428811"></polygon>
                            <polygon id="path2840" stroke-width="1.38529709" fill="#45FE02" points="136.512298 12.0428811 136.512298 1.1162792 272.393388 136.918338 260.939815 136.918338 136.512298 12.0428811"></polygon>
                            <polygon id="path2842" stroke-width="1.38529709" fill="#017D17" points="136.82467 261.481613 136.82467 272.408215 0.943572468 136.606156 12.3971439 136.606156"></polygon>
                            <polygon id="path3650" stroke-width="10.7060003" points="26.1517849 14.9079226 113.767204 14.9079226 119.105113 20.2427183 119.105113 36.6150677 114.871595 41.765908 105.30016 41.765908 105.30016 123.075767 187.761725 41.765908 174.140844 41.765908 169.355122 36.6150677 169.355122 19.3229264 173.77271 15.2758335 262.492521 15.2758335 266.910101 19.6908447 266.910101 35.8792313 66.2781803 241.545313 43.453997 241.545313 36.8474375 237.733236 36.8474375 41.0300789 25.7836599 41.0300789 21.7342128 36.9829859 21.7342128 19.6908447 26.1517849 14.9079226"></polygon>
                            <polygon id="path2844" stroke-width="1.38529709" fill="#005D04" points="136.512298 261.481613 136.512298 272.408215 272.393388 136.606156 260.939815 136.606156 136.512298 261.481613"></polygon>
                            <polygon id="path2846" stroke-width="8.31178252" points="136.458032 0.109006278 0.0658605816 136.421848 135.889738 272.166732 272.281914 135.853882"></polygon>
                            <polygon id="path3640" stroke-width="1.38529709" fill="#FEFEFE" points="114.698424 23.2296357 119.64429 20.6280652 114.568272 15.5550005 26.1935008 15.5550005 21.7031705 20.0427071 21.7031705 37.0179681 26.681574 41.9934718 29.056896 37.0179681 25.933195 33.8960776 25.933195 21.9288431 28.2759708 19.8475926 112.615963 19.8475926"></polygon>
                            <polygon id="path3632" stroke-width="1.38848869" points="177.179007 19.3236112 174.058557 22.4422457 174.058557 33.892415 176.791798 36.6240657 191.232418 36.6240657 191.232418 47.6872511 95.7056651 144.455978 95.7056651 36.7606483 111.581237 36.7606483 114.838348 33.5054311 114.838348 21.9186794 111.831784 19.5967762 28.2857345 19.5967762 25.5524941 22.328427 25.5524941 34.1655801 28.3312885 36.9427583 42.8630168 36.9427583 42.8630168 235.2606 45.5962572 237.992251 62.1095848 237.992251 262.296669 31.5477481 262.296669 22.4422457 259.17622 19.3236112"></polygon>
                            <polygon id="path3646" stroke-width="1.38529709" fill="#FEFEFE" points="42.7177309 36.6150677 42.7177309 235.290704 45.2946541 238.234049 43.2738239 242.083194 37.5638846 236.394458 37.5638846 41.765908"></polygon>
                            <polygon id="path3644" stroke-width="1.38529709" fill="#808080" points="28.4401578 36.6150677 26.9676257 41.3979971 37.6434593 41.3979971 43.5335717 36.6150677"></polygon>
                            <path d="M175.090031,41.9869746 L177.432807,37.1740699 L174.048792,34.0521795 L174.048792,23.3857375 L177.953426,19.4833671 L259.430023,19.4833671 L262.553724,23.6458902 L266.97897,20.5239997 L262.423571,15.9712477 L174.829717,15.9712477 L170.469556,20.3288852 L170.469556,37.4342152 L174.992416,41.6942992 L175.090031,41.9869746 Z M104.204745,123.829186 L95.6959047,144.462897 L191.749783,48.20473 L191.749783,36.7578154 L104.204745,123.829186 L104.204745,123.829186 Z" id="path3638" stroke-width="1.38529709" fill="#FEFEFE"></path>
                            <polygon id="path3642" stroke-width="1.38529709" fill="#808080" points="114.503454 22.6341903 118.73698 19.8748074 118.73698 36.6150677 113.859231 41.4899785 104.379832 41.4899785 104.379832 123.995551 95.7287259 144.415001 95.7287259 36.6150677 111.558406 36.6150677 114.503454 34.223603 114.503454 22.6341903"></polygon>
                            <polygon id="path3622" stroke-width="1.38848869" fill="#CCCCCC" points="177.179007 19.3236112 174.058557 22.4422457 174.058557 33.892415 176.791798 36.6240657 191.232418 36.6240657 191.232418 47.6872511 95.7056651 144.455978 95.7056651 36.7606483 111.581237 36.7606483 114.838348 33.5054311 114.838348 21.9186794 111.831784 19.5967762 28.2857345 19.5967762 25.5524941 22.328427 25.5524941 34.1655801 28.3312885 36.9427583 42.8630168 36.9427583 42.8630168 235.2606 45.5962572 237.992251 62.1095848 237.992251 262.296669 31.5477481 262.296669 22.4422457 259.17622 19.3236112"></polygon>
                            <polygon id="path3636" stroke-width="1.38529709" fill="#808080" points="262.553724 22.709323 266.999824 20.1438579 266.999824 36.2374954 65.341235 242.181614 43.9314613 242.181614 45.9769539 238.1195 62.3764004 238.1195 262.293418 31.8148344"></polygon>
                            <path d="M191.351012,36.8909972 L186.841405,41.5819525 L175.061172,41.5819525 L177.822166,36.8909972 L191.351012,36.8909972 L191.351012,36.8909972 Z" id="path3652" stroke-width="1.38529709" fill="#808080"></path>
                            <g id="g3673" transform="translate(109.166680, 152.274090)" fill="#CCCCCC">
                                <path d="M34.0971744,0.728440191 C33.9450907,0.760166094 33.803834,0.830753389 33.6871883,0.933313995 L29.8150977,4.25682237 C29.6993216,4.36183909 29.6129622,4.49522604 29.5645506,4.64380622 L25.69246,15.4793541 C25.5758022,15.8039889 25.6554709,16.1667133 25.8974531,16.4126681 L28.8584635,19.3719563 C29.0296198,19.5363215 29.2588888,19.626339 29.4962196,19.6223577 L41.4541465,19.6223577 C41.6914774,19.626339 41.9207464,19.5363215 42.0919026,19.3719563 L45.2123521,16.230558 C45.3198305,16.1229141 45.3982023,15.9897595 45.4401221,15.8435742 L48.7655647,4.43893242 C48.8577924,4.12364205 48.7704443,3.78318284 48.5377946,3.55114593 L45.9639932,0.978841507 C45.792837,0.814476381 45.563568,0.724458809 45.3262371,0.728440191 L34.2793904,0.728440191 C34.2188086,0.722270319 34.1577562,0.722270319 34.0971744,0.728440191 L34.0971744,0.728440191 Z M12.1856969,31.2774007 C11.8506154,31.3492415 11.5855836,31.60529 11.5023868,31.9375496 L10.0218816,37.8105987 C9.95523644,38.0777616 10.0148856,38.3607146 10.1837189,38.5782941 C10.3525523,38.7958737 10.6119141,38.9240376 10.8874077,38.9260227 L17.9255018,38.9260227 L0.478317075,88.710357 C0.386892245,88.982806 0.43142653,89.282527 0.598123356,89.5166673 C0.764820182,89.7508077 1.03355186,89.8910963 1.32106621,89.8940723 L26.7174252,89.8940723 C27.109134,89.8996309 27.4593162,89.6509619 27.5829513,89.2794509 L29.2456726,83.9299683 C29.3293641,83.6566099 29.2778552,83.3597607 29.1069546,83.1305275 C28.936054,82.9012943 28.6661748,82.7670577 28.3801465,82.7690167 L22.6403416,82.7690167 L39.9053103,32.461116 C39.9967351,32.188667 39.9522008,31.8889461 39.785504,31.6548057 C39.6188072,31.4206654 39.3500755,31.2803767 39.0625611,31.2774007 L12.3679129,31.2774007 C12.3073311,31.2712308 12.2462787,31.2712308 12.1856969,31.2774007 L12.1856969,31.2774007 Z M92.9985056,31.4595108 C92.8032524,31.4998684 92.6269717,31.6039737 92.4974115,31.7554396 L87.2131467,37.7195437 L78.8084324,37.7195437 L73.2052895,31.9147859 C73.0378648,31.7420775 72.8081362,31.6436796 72.5675334,31.6416208 L52.5009932,31.6416208 C52.1235987,31.6424894 51.7869514,31.8789148 51.6582441,32.2334785 L49.8133068,37.7423074 C49.721882,38.0147564 49.7664163,38.3144773 49.9331131,38.5486177 C50.0998099,38.7827581 50.3685416,38.9230467 50.656056,38.9260227 L56.0314288,38.9260227 L39.3131082,88.1640269 C39.2216833,88.4364759 39.2662176,88.7361968 39.4329145,88.9703372 C39.5996113,89.2044775 39.868343,89.3447662 40.1558573,89.3477422 L61.5206867,89.3477422 C61.8980811,89.3468737 62.2347285,89.1104483 62.3634358,88.7558845 L64.00338,83.952732 C64.0948049,83.6802831 64.0502706,83.3805621 63.8835738,83.1464217 C63.7168769,82.9122814 63.4481453,82.7719927 63.1606309,82.7690167 L59.4252023,82.7690167 L70.08484,49.2380042 L89.376962,49.2380042 L77.2140421,88.1867906 C77.1303506,88.460149 77.1818595,88.7569982 77.3527601,88.9862314 C77.5236607,89.2154646 77.7935399,89.3497012 78.0795683,89.3477422 L98.6927565,89.3477422 C99.0505264,89.3449923 99.372585,89.1304114 99.5127286,88.8014121 L101.357666,84.3852434 C101.466459,84.1111601 101.433717,83.8011661 101.270062,83.5558256 C101.106406,83.3104852 100.832685,83.161051 100.537694,83.1560006 L96.8022652,83.1560006 L107.644119,49.0558941 L126.002384,49.0558941 L113.657248,88.1867906 C113.573556,88.460149 113.625065,88.7569982 113.795966,88.9862314 C113.966866,89.2154646 114.236746,89.3497012 114.522774,89.3477422 L137.163116,89.3477422 C137.534748,89.3504436 137.869709,89.1242502 138.005865,88.7786483 L139.850802,83.9754958 C139.95144,83.7002847 139.911429,83.3933133 139.743603,83.1530538 C139.575777,82.9127944 139.301237,82.7694549 139.008053,82.7690167 L134.520983,82.7690167 L148.164408,38.4935114 C148.255599,38.2144407 148.20457,37.9084437 148.027746,37.6740161 L143.791224,31.9830771 C143.615707,31.7607976 143.345587,31.6342524 143.062359,31.6416208 L126.86791,31.6416208 C126.61941,31.6374768 126.380289,31.7363661 126.207377,31.9147859 L121.105328,37.5146698 L112.176743,37.5146698 L106.892478,31.7326758 C106.719566,31.5542561 106.480444,31.4553667 106.231945,31.4595108 L93.1807216,31.4595108 C93.1201398,31.4533409 93.0590874,31.4533409 92.9985056,31.4595108 L92.9985056,31.4595108 Z" id="path3671" stroke-width="11.1079096"></path>
                                <path d="M34.2793904,1.61622667 L30.4072998,4.93973505 L26.5352092,15.7752829 L29.4962196,18.7345712 L41.4541465,18.7345712 L44.574596,15.5931728 L47.9000385,4.1885311 L45.3262371,1.61622667 L34.2793904,1.61622667 L34.2793904,1.61622667 Z M12.3679129,32.1651872 L10.8874077,38.0382362 L19.178237,38.0382362 L1.32106621,89.0062859 L26.7174252,89.0062859 L28.3801465,83.6568032 L21.3876064,83.6568032 L39.0625611,32.1651872 L12.3679129,32.1651872 L12.3679129,32.1651872 Z M93.1807216,32.3472972 L87.6459098,38.6073301 L78.4440003,38.6073301 L72.5675334,32.5294073 L52.5009932,32.5294073 L50.656056,38.0382362 L57.284164,38.0382362 L40.1558573,88.4599557 L61.5206867,88.4599557 L63.1606309,83.6568032 L58.1952441,83.6568032 L69.4243069,48.3502177 L90.6069202,48.3502177 L78.0795683,88.4599557 L98.6927565,88.4599557 L100.537694,84.0437871 L95.572307,84.0437871 L106.983586,48.1681076 L127.232342,48.1681076 L114.522774,88.4599557 L137.163116,88.4599557 L139.008053,83.6568032 L133.291025,83.6568032 L147.298882,38.2203463 L143.062359,32.5294073 L126.86791,32.5294073 L121.515314,38.4024563 L111.766757,38.4024563 L106.231945,32.3472972 L93.1807216,32.3472972 L93.1807216,32.3472972 Z" id="path3665" stroke-width="1.38848869"></path>
                            </g>
                        </g>
                    </g>
                </g>
            </g>
        </g>
    </g>
</svg>